<svg xmlns="http://www.w3.org/2000/svg" viewBox="0 0 243.93 75"><defs><style>.cls-1{fill:#f58220;}.cls-2{fill:#ffc52f;}.cls-3{fill:#6e6f72;}</style></defs><title>SpringCMDS-Color-Web75px</title><g id="Layer_2" data-name="Layer 2"><g id="Layer_1-2" data-name="Layer 1"><path class="cls-1" d="M161.83,41.5a15.68,15.68,0,0,1-5.94,3.79,2.14,2.14,0,0,1,.38,1.4c0,2.37-5.64,3.13-9,3.13-4.23,0-9.48-.86-10.52-4.1l-.06-.11s-.07-.26-.12-.26a1,1,0,0,0-.31.06c-1.92.54-3.35,1.66-3.36,3.54s1.29,3.74,3.65,5.15a18.34,18.34,0,0,0,9.17,2.27h1.46c9.17-.31,15.83-4.54,15.84-10.05a9.58,9.58,0,0,0-1.15-4.78s0,0,0,0"/><path class="cls-1" d="M11.81,44.41C4.64,44.41,0,42.26,0,38.94a3.94,3.94,0,0,1,2.37-3.63l.5-.23.26.48c1,1.81,3.9,3.74,9.3,3.74,4,0,6.82-1.71,6.82-4.15,0-2.15-1.15-3.35-7.94-4.84-7.16-1.6-10.5-4.46-10.5-9,0-6.29,6.41-9.69,12.43-9.69,7.25,0,9.82,2.71,9.82,5,0,2-1.82,2.58-2.81,2.9l-.51.18-.2-.5c-.32-.81-2.62-2.38-6.49-2.38-1.44,0-6.13.26-6.13,3.65,0,1.76.44,3,6.32,4.35,8.44,1.89,11.87,4.78,11.87,10,0,5.64-5.47,9.57-13.3,9.57"/><path class="cls-1" d="M32.59,56.77a2.6,2.6,0,0,1-2.93-2.88V15.1c0-1.91,1-2.87,2.93-2.87H33c1.19,0,2.66.38,2.9,2.23l.13,1,.76-.68A12.12,12.12,0,0,1,45,11.67c8.44,0,13.48,6.06,13.48,16.22,0,12.24-8.1,16.59-15,16.59a17.56,17.56,0,0,1-6.69-1.42L36,42.74V53.89c0,1.91-1,2.88-2.93,2.88ZM43.77,17.16C38.66,17.16,36,21.6,36,30v7.44l.32.14a20.15,20.15,0,0,0,7.11,1.47c5.64,0,8.75-3.95,8.75-11.1,0-7-3-10.79-8.37-10.79"/><path class="cls-1" d="M65.9,44c-2,0-2.94-.93-2.94-2.93V15.1c0-1.94,1-2.87,2.94-2.87h.37c1.88,0,2.84.85,2.92,2.61l.07,1.28.87-1a9.85,9.85,0,0,1,7.07-3.38c4,0,5.85,2.13,5.85,4.11a3.29,3.29,0,0,1-1.56,3l-.36.25-.33-.29a5.2,5.2,0,0,0-3.73-1.48c-5.35,0-7.74,5.24-7.74,10.42V41.05c0,2-.94,2.93-2.94,2.93Z"/><path class="cls-1" d="M90.28,44a2.6,2.6,0,0,1-2.93-2.93V15.1a2.59,2.59,0,0,1,2.93-2.87h.38a2.59,2.59,0,0,1,2.93,2.87V41.05A2.6,2.6,0,0,1,90.66,44ZM90.47,8a4,4,0,0,1,0-8,4.06,4.06,0,0,1,4,4.05,4,4,0,0,1-4,4"/><path class="cls-1" d="M124.81,44c-1.91,0-2.88-1-2.88-2.93V25c0-6.91-3.63-7.8-6.81-7.8-4.74,0-7.81,4-7.81,10.29v13.6c0,2-1,2.93-3,2.93h-.43c-2,0-2.94-.93-2.94-2.93V15.16a2.6,2.6,0,0,1,2.94-2.93h.43c1.87,0,2.82.86,2.92,2.63l.07,1.21.85-.87a11.37,11.37,0,0,1,8.08-3.53c3.61,0,12,1.27,12,13.11V41.05c0,2-.92,2.93-2.93,2.93Z"/><path class="cls-2" d="M182.77,44.48c-7.31,0-15.84-4.28-15.84-16.35s8.53-16.46,15.84-16.46c6.47,0,10.82,3,10.82,5.85,0,1.81-1.16,3-3.18,3.24l-.41,0-.17-.39c-.75-1.61-3.61-3.32-7.43-3.32-5.67,0-9.05,4.13-9.05,11,0,8.11,4.81,11,8.93,11,5.25,0,7-2.13,7.87-3.74l.16-.3h.35A3.17,3.17,0,0,1,194,38.19c0,3.09-4.21,6.29-11.25,6.29"/><path class="cls-2" d="M239.83,44c-1.94,0-2.93-1-2.93-2.87v-16c0-5.34-1.92-7.93-5.88-7.93-5.08,0-7.25,3.48-7.25,11.66V41.11c0,1.93-1,2.87-3,2.87h-.43c-1.94,0-2.94-1-2.94-2.87v-16c0-5.26-2-7.93-5.94-7.93-4.84,0-7.19,3.75-7.19,11.47V41.11c0,1.93-1,2.87-3,2.87h-.38c-2,0-2.93-.94-2.93-2.87V15.16c0-2,1-2.93,2.93-2.93h.38c1.73,0,2.72.75,2.95,2.25l.15,1.07.76-.78a9.75,9.75,0,0,1,7.31-3,9.94,9.94,0,0,1,9.3,5.43l.46.89.48-.89A10.48,10.48,0,0,1,232,11.73c5.13,0,11.25,2.26,11.25,13.05V41.11c0,1.93-1,2.87-3,2.87Z"/><path class="cls-1" d="M161.45,29.35a13.85,13.85,0,0,1-5.68,4,1.73,1.73,0,0,1,.5,1.62c0,2.38-5.64,3.14-9,3.14-4.23,0-9.48-.85-10.52-4.1l-.06-.11s-.07-.25-.12-.25a.93.93,0,0,0-.31,0c-1.92.54-3.35,1.67-3.36,3.54s1.29,3.74,3.65,5.15a18.24,18.24,0,0,0,9.17,2.27h1.46c9.17-.31,15.83-4.53,15.84-10a9.59,9.59,0,0,0-1.15-4.79,1,1,0,0,0-.41-.47"/><path class="cls-1" d="M162.65,22.6a8.68,8.68,0,0,0-.64-3.34l-.07-.16,0-.18c.45-1.9.65-4.42-.88-5.66a4.07,4.07,0,0,0-2.53-1.09,2.82,2.82,0,0,0-2.34,1.52L156,14l-.4-.14a25.91,25.91,0,0,0-8.27-1.38C138.46,12.52,132,17,132,23.08c0,8.51,9.05,9.78,14.44,9.78h1.46c8.81-.33,14.74-4.46,14.74-10.26m-15,4.7h-.42c-2.94,0-9.78-.45-9.78-4.61,0-1.91,3.47-3.93,9.88-3.93,8.94,0,9.39,3.5,9.39,4.2,0,2.09-2.84,4.34-9.07,4.34"/><path class="cls-3" d="M135.75,64.77h1.73l2.9,8.22h-1.74l-.55-1.75h-3L134.58,73h-1.69ZM135.51,70h2.18L137,67.6c-.14-.44-.33-1.27-.33-1.27h0s-.2.83-.34,1.27Z"/><path class="cls-3" d="M143.52,64.77h3.2c2.2,0,3.61,1.77,3.61,4.19A4.08,4.08,0,0,1,149,72.19a3.64,3.64,0,0,1-2.43.8h-3.07Zm2.95,6.78c1.56,0,2.17-1,2.17-2.59s-.71-2.77-2.12-2.77h-1.34v5.36Z"/><path class="cls-3" d="M150.83,70a3.08,3.08,0,1,1,3.08,3.12A3,3,0,0,1,150.83,70Zm4.57,0c0-1.15-.54-1.93-1.49-1.93s-1.49.78-1.49,1.93.52,1.92,1.49,1.92S155.4,71.19,155.4,70Z"/><path class="cls-3" d="M157.43,70a2.91,2.91,0,0,1,2.94-3.11,2.5,2.5,0,0,1,2.68,2.16h-1.53a1.07,1.07,0,0,0-1.08-.91c-.94,0-1.43.73-1.43,1.86s.45,1.87,1.41,1.87a1.1,1.1,0,0,0,1.18-1h1.51a2.48,2.48,0,0,1-2.66,2.25A2.93,2.93,0,0,1,157.43,70Z"/><path class="cls-3" d="M167.51,73V72.3h0A2.07,2.07,0,0,1,163.74,71V67.09h1.55v3.67c0,.69.31,1.07,1,1.07a1.19,1.19,0,0,0,1.18-1.34v-3.4H169V73Z"/><path class="cls-3" d="M169.79,70.45h1.63c.12,1,.68,1.38,1.85,1.38.85,0,1.6-.3,1.6-1.06s-.78-1-2-1.25c-1.47-.34-2.81-.73-2.81-2.44s1.32-2.46,3.15-2.46,3.05.91,3.17,2.56h-1.6a1.41,1.41,0,0,0-1.58-1.24c-.9,0-1.49.38-1.49,1s.58.86,1.8,1.12c1.69.37,3.07.77,3.07,2.54s-1.35,2.6-3.2,2.6C171.11,73.17,169.85,72.18,169.79,70.45Z"/><path class="cls-3" d="M177.41,64.77H179v1.4h-1.56Zm0,2.32H179V73h-1.56Z"/><path class="cls-3" d="M179.83,73.16h1.55c.12.37.46.66,1.18.66.89,0,1.31-.43,1.31-1.23v-.65h0a1.93,1.93,0,0,1-1.54.69,2.65,2.65,0,0,1-2.6-2.82,2.59,2.59,0,0,1,2.55-2.88,1.89,1.89,0,0,1,1.63.78h0v-.62h1.5v5.45a2.26,2.26,0,0,1-.7,1.79,3.07,3.07,0,0,1-2.12.67C181,75,180,74.31,179.83,73.16ZM184,69.78a1.42,1.42,0,0,0-1.4-1.6c-.79,0-1.32.62-1.32,1.61s.53,1.59,1.33,1.59C183.55,71.38,184,70.65,184,69.78Z"/><path class="cls-3" d="M188,67.89h0a1.91,1.91,0,0,1,1.75-1,2,2,0,0,1,2,2.21V73h-1.56V69.37a1,1,0,0,0-1-1.08A1.23,1.23,0,0,0,188,69.64V73h-1.56v-5.9H188Z"/><path class="cls-3" d="M191.54,66.48a1.18,1.18,0,1,1,1.18,1.2A1.17,1.17,0,0,1,191.54,66.48Zm2.15,0a1,1,0,1,0-1,1A1,1,0,0,0,193.69,66.48Zm-1.43-.64h.58a.36.36,0,0,1,.4.35.28.28,0,0,1-.23.3h0c.12,0,.18.1.19.26s0,.31.06.33H193S193,67,193,66.81a.21.21,0,0,0-.24-.22h-.21v.51h-.25Zm.25.56h.28c.14,0,.21-.07.21-.18s-.07-.18-.21-.18h-.28Z"/><path class="cls-3" d="M195.65,68.91c0-2.44,1.51-4.3,3.94-4.3A3.11,3.11,0,0,1,203,67.38h-1.66A1.62,1.62,0,0,0,199.59,66c-1.52,0-2.24,1.26-2.24,2.9s.87,2.88,2.25,2.88a1.65,1.65,0,0,0,1.77-1.45H203a2.86,2.86,0,0,1-.91,2,3.45,3.45,0,0,1-2.49.87A4,4,0,0,1,195.65,68.91Z"/><path class="cls-3" d="M203.51,70a3.08,3.08,0,1,1,3.08,3.12A3,3,0,0,1,203.51,70Zm4.57,0c0-1.15-.54-1.93-1.49-1.93s-1.49.78-1.49,1.93.52,1.92,1.49,1.92S208.08,71.19,208.08,70Z"/><path class="cls-3" d="M210.4,67.09h1.5v.79h0a1.91,1.91,0,0,1,1.71-.95,1.75,1.75,0,0,1,1.63,1h0a2.05,2.05,0,0,1,1.77-1A1.85,1.85,0,0,1,219,69v4h-1.56v-3.7c0-.67-.34-1-.91-1s-1.06.51-1.06,1.29V73h-1.56v-3.7c0-.67-.34-1-.91-1s-1.06.51-1.06,1.29V73H210.4Z"/><path class="cls-3" d="M220,67.09h1.5v.74h0a2.05,2.05,0,0,1,1.73-.9c1.57,0,2.57,1.28,2.57,3.11s-1,3.12-2.56,3.12a1.9,1.9,0,0,1-1.7-.84h0v2.6H220Zm4.25,3c0-1.11-.39-1.9-1.36-1.9s-1.37.84-1.37,1.9.5,1.77,1.43,1.77S224.24,71.21,224.24,70.09Z"/><path class="cls-3" d="M230.08,72.33h0a1.82,1.82,0,0,1-1.74.8c-1.21,0-2.06-.64-2.06-1.81s1.06-1.71,2.37-1.9c1-.13,1.43-.21,1.43-.66s-.34-.7-1-.7-1.09.26-1.14.82h-1.39c0-1,.81-1.94,2.54-1.94s2.48.79,2.48,2.17v3c0,.45.07.72.21.82V73h-1.51A1.59,1.59,0,0,1,230.08,72.33Zm0-1.42V70a4.66,4.66,0,0,1-1.09.35c-.82.18-1.22.36-1.22.92s.37.74.92.74C229.6,72,230.09,71.48,230.09,70.91Z"/><path class="cls-3" d="M234.08,67.89h0a1.91,1.91,0,0,1,1.74-1,2,2,0,0,1,2,2.21V73h-1.57V69.37a1,1,0,0,0-1-1.08,1.23,1.23,0,0,0-1.19,1.35V73h-1.57v-5.9h1.53Z"/><path class="cls-3" d="M238.88,73.69h.55c.62,0,.87-.32.87-.81a4.88,4.88,0,0,0-.45-1.59l-1.58-4.2h1.64l.87,2.66c.19.54.38,1.28.38,1.28h0s.16-.74.34-1.28l.83-2.66h1.57l-2.05,6c-.45,1.31-.89,1.78-2.08,1.78h-.92Z"/></g></g></svg>